<mxfile host="app.diagrams.net" modified="2022-07-17T11:02:02.966Z" agent="5.0 (X11; Linux x86_64) AppleWebKit/537.36 (KHTML, like Gecko) Chrome/103.0.5060.114 Safari/537.36" etag="LRVeYkOQZxSCVw9_hvrn" version="20.1.1" type="github">
  <diagram id="t0wgl5kGKeVj71PaXPHp" name="Page-1">
    <mxGraphModel dx="2498" dy="1471" grid="1" gridSize="10" guides="1" tooltips="1" connect="1" arrows="1" fold="1" page="1" pageScale="1" pageWidth="850" pageHeight="1100" math="0" shadow="0">
      <root>
        <mxCell id="0" />
        <mxCell id="1" parent="0" />
        <mxCell id="wTUO78rwZ2sCBWeo4oor-3" value="" style="edgeStyle=orthogonalEdgeStyle;rounded=0;orthogonalLoop=1;jettySize=auto;html=1;fontSize=16;" edge="1" parent="1" source="wTUO78rwZ2sCBWeo4oor-1" target="wTUO78rwZ2sCBWeo4oor-2">
          <mxGeometry relative="1" as="geometry" />
        </mxCell>
        <mxCell id="wTUO78rwZ2sCBWeo4oor-1" value="&lt;font style=&quot;font-size: 16px;&quot;&gt;Start&lt;/font&gt;" style="ellipse;whiteSpace=wrap;html=1;" vertex="1" parent="1">
          <mxGeometry x="90" y="35" width="120" height="60" as="geometry" />
        </mxCell>
        <mxCell id="wTUO78rwZ2sCBWeo4oor-5" value="" style="edgeStyle=orthogonalEdgeStyle;rounded=0;orthogonalLoop=1;jettySize=auto;html=1;fontSize=16;" edge="1" parent="1" source="wTUO78rwZ2sCBWeo4oor-2" target="wTUO78rwZ2sCBWeo4oor-4">
          <mxGeometry relative="1" as="geometry" />
        </mxCell>
        <mxCell id="wTUO78rwZ2sCBWeo4oor-2" value="Input Profile&lt;br&gt;Input Syarat SJH" style="shape=parallelogram;perimeter=parallelogramPerimeter;whiteSpace=wrap;html=1;fixedSize=1;" vertex="1" parent="1">
          <mxGeometry x="50" y="135" width="200" height="60" as="geometry" />
        </mxCell>
        <mxCell id="wTUO78rwZ2sCBWeo4oor-7" value="" style="edgeStyle=orthogonalEdgeStyle;rounded=0;orthogonalLoop=1;jettySize=auto;html=1;fontSize=16;" edge="1" parent="1" source="wTUO78rwZ2sCBWeo4oor-4" target="wTUO78rwZ2sCBWeo4oor-6">
          <mxGeometry relative="1" as="geometry" />
        </mxCell>
        <mxCell id="wTUO78rwZ2sCBWeo4oor-4" value="Simulasi &lt;br&gt;Syarat SJH" style="whiteSpace=wrap;html=1;" vertex="1" parent="1">
          <mxGeometry x="60" y="235" width="180" height="60" as="geometry" />
        </mxCell>
        <mxCell id="wTUO78rwZ2sCBWeo4oor-9" value="" style="edgeStyle=orthogonalEdgeStyle;rounded=0;orthogonalLoop=1;jettySize=auto;html=1;fontSize=16;" edge="1" parent="1" source="wTUO78rwZ2sCBWeo4oor-6" target="wTUO78rwZ2sCBWeo4oor-8">
          <mxGeometry relative="1" as="geometry" />
        </mxCell>
        <mxCell id="wTUO78rwZ2sCBWeo4oor-56" value="Tidak" style="edgeLabel;html=1;align=center;verticalAlign=middle;resizable=0;points=[];fontSize=16;" vertex="1" connectable="0" parent="wTUO78rwZ2sCBWeo4oor-9">
          <mxGeometry x="-0.2952" y="-1" relative="1" as="geometry">
            <mxPoint x="12" y="-1" as="offset" />
          </mxGeometry>
        </mxCell>
        <mxCell id="wTUO78rwZ2sCBWeo4oor-12" value="" style="edgeStyle=orthogonalEdgeStyle;rounded=0;orthogonalLoop=1;jettySize=auto;html=1;fontSize=16;" edge="1" parent="1" source="wTUO78rwZ2sCBWeo4oor-6" target="wTUO78rwZ2sCBWeo4oor-11">
          <mxGeometry relative="1" as="geometry" />
        </mxCell>
        <mxCell id="wTUO78rwZ2sCBWeo4oor-57" value="Iya" style="edgeLabel;html=1;align=center;verticalAlign=middle;resizable=0;points=[];fontSize=16;" vertex="1" connectable="0" parent="wTUO78rwZ2sCBWeo4oor-12">
          <mxGeometry x="-0.2698" y="2" relative="1" as="geometry">
            <mxPoint as="offset" />
          </mxGeometry>
        </mxCell>
        <mxCell id="wTUO78rwZ2sCBWeo4oor-6" value="Pengecekan Simulasi" style="rhombus;whiteSpace=wrap;html=1;" vertex="1" parent="1">
          <mxGeometry x="95" y="320" width="110" height="110" as="geometry" />
        </mxCell>
        <mxCell id="wTUO78rwZ2sCBWeo4oor-10" style="edgeStyle=orthogonalEdgeStyle;rounded=0;orthogonalLoop=1;jettySize=auto;html=1;entryX=1;entryY=0.5;entryDx=0;entryDy=0;fontSize=16;" edge="1" parent="1" source="wTUO78rwZ2sCBWeo4oor-8" target="wTUO78rwZ2sCBWeo4oor-2">
          <mxGeometry relative="1" as="geometry">
            <Array as="points">
              <mxPoint x="340" y="165" />
            </Array>
          </mxGeometry>
        </mxCell>
        <mxCell id="wTUO78rwZ2sCBWeo4oor-8" value="Notifikasi Simulasi Tidak Sesuai" style="whiteSpace=wrap;html=1;" vertex="1" parent="1">
          <mxGeometry x="290" y="345" width="120" height="60" as="geometry" />
        </mxCell>
        <mxCell id="wTUO78rwZ2sCBWeo4oor-16" value="" style="edgeStyle=orthogonalEdgeStyle;rounded=0;orthogonalLoop=1;jettySize=auto;html=1;fontSize=16;" edge="1" parent="1" source="wTUO78rwZ2sCBWeo4oor-11" target="wTUO78rwZ2sCBWeo4oor-15">
          <mxGeometry relative="1" as="geometry" />
        </mxCell>
        <mxCell id="wTUO78rwZ2sCBWeo4oor-11" value="Generate File SJH" style="whiteSpace=wrap;html=1;" vertex="1" parent="1">
          <mxGeometry x="60" y="475" width="180" height="60" as="geometry" />
        </mxCell>
        <mxCell id="wTUO78rwZ2sCBWeo4oor-18" value="" style="edgeStyle=orthogonalEdgeStyle;rounded=0;orthogonalLoop=1;jettySize=auto;html=1;fontSize=16;" edge="1" parent="1" source="wTUO78rwZ2sCBWeo4oor-15" target="wTUO78rwZ2sCBWeo4oor-17">
          <mxGeometry relative="1" as="geometry" />
        </mxCell>
        <mxCell id="wTUO78rwZ2sCBWeo4oor-15" value="Pendaftaran Setrifikat Halal" style="whiteSpace=wrap;html=1;" vertex="1" parent="1">
          <mxGeometry x="60" y="575" width="180" height="60" as="geometry" />
        </mxCell>
        <mxCell id="wTUO78rwZ2sCBWeo4oor-22" value="" style="edgeStyle=orthogonalEdgeStyle;rounded=0;orthogonalLoop=1;jettySize=auto;html=1;fontSize=16;" edge="1" parent="1" source="wTUO78rwZ2sCBWeo4oor-17" target="wTUO78rwZ2sCBWeo4oor-21">
          <mxGeometry relative="1" as="geometry" />
        </mxCell>
        <mxCell id="wTUO78rwZ2sCBWeo4oor-58" value="Tidak" style="edgeLabel;html=1;align=center;verticalAlign=middle;resizable=0;points=[];fontSize=16;" vertex="1" connectable="0" parent="wTUO78rwZ2sCBWeo4oor-22">
          <mxGeometry x="-0.3229" y="1" relative="1" as="geometry">
            <mxPoint x="6" y="1" as="offset" />
          </mxGeometry>
        </mxCell>
        <mxCell id="wTUO78rwZ2sCBWeo4oor-25" value="" style="edgeStyle=orthogonalEdgeStyle;rounded=0;orthogonalLoop=1;jettySize=auto;html=1;fontSize=16;" edge="1" parent="1" source="wTUO78rwZ2sCBWeo4oor-17" target="wTUO78rwZ2sCBWeo4oor-24">
          <mxGeometry relative="1" as="geometry" />
        </mxCell>
        <mxCell id="wTUO78rwZ2sCBWeo4oor-59" value="Ya" style="edgeLabel;html=1;align=center;verticalAlign=middle;resizable=0;points=[];fontSize=16;" vertex="1" connectable="0" parent="wTUO78rwZ2sCBWeo4oor-25">
          <mxGeometry x="-0.38" relative="1" as="geometry">
            <mxPoint as="offset" />
          </mxGeometry>
        </mxCell>
        <mxCell id="wTUO78rwZ2sCBWeo4oor-17" value="&lt;br&gt;Pengecekan Data &lt;br&gt;Oleh BPJPH" style="rhombus;whiteSpace=wrap;html=1;" vertex="1" parent="1">
          <mxGeometry x="75" y="675" width="150" height="140" as="geometry" />
        </mxCell>
        <mxCell id="wTUO78rwZ2sCBWeo4oor-23" style="edgeStyle=orthogonalEdgeStyle;rounded=0;orthogonalLoop=1;jettySize=auto;html=1;entryX=1;entryY=0.25;entryDx=0;entryDy=0;fontSize=16;" edge="1" parent="1" source="wTUO78rwZ2sCBWeo4oor-21" target="wTUO78rwZ2sCBWeo4oor-2">
          <mxGeometry relative="1" as="geometry">
            <Array as="points">
              <mxPoint x="440" y="745" />
              <mxPoint x="440" y="151" />
            </Array>
          </mxGeometry>
        </mxCell>
        <mxCell id="wTUO78rwZ2sCBWeo4oor-21" value="Notifikasi Pendaftaran Tidak Diterima" style="whiteSpace=wrap;html=1;" vertex="1" parent="1">
          <mxGeometry x="280" y="715" width="150" height="60" as="geometry" />
        </mxCell>
        <mxCell id="wTUO78rwZ2sCBWeo4oor-27" value="" style="edgeStyle=orthogonalEdgeStyle;rounded=0;orthogonalLoop=1;jettySize=auto;html=1;fontSize=16;" edge="1" parent="1" source="wTUO78rwZ2sCBWeo4oor-24" target="wTUO78rwZ2sCBWeo4oor-26">
          <mxGeometry relative="1" as="geometry" />
        </mxCell>
        <mxCell id="wTUO78rwZ2sCBWeo4oor-24" value="Penunjukan LPH" style="whiteSpace=wrap;html=1;" vertex="1" parent="1">
          <mxGeometry x="60" y="875" width="180" height="60" as="geometry" />
        </mxCell>
        <mxCell id="wTUO78rwZ2sCBWeo4oor-26" value="A" style="ellipse;whiteSpace=wrap;html=1;aspect=fixed;fontSize=16;" vertex="1" parent="1">
          <mxGeometry x="110" y="985" width="80" height="80" as="geometry" />
        </mxCell>
        <mxCell id="wTUO78rwZ2sCBWeo4oor-30" value="" style="edgeStyle=orthogonalEdgeStyle;rounded=0;orthogonalLoop=1;jettySize=auto;html=1;fontSize=16;" edge="1" parent="1" source="wTUO78rwZ2sCBWeo4oor-28" target="wTUO78rwZ2sCBWeo4oor-29">
          <mxGeometry relative="1" as="geometry" />
        </mxCell>
        <mxCell id="wTUO78rwZ2sCBWeo4oor-28" value="A" style="ellipse;whiteSpace=wrap;html=1;aspect=fixed;fontSize=16;" vertex="1" parent="1">
          <mxGeometry x="570" y="25" width="80" height="80" as="geometry" />
        </mxCell>
        <mxCell id="wTUO78rwZ2sCBWeo4oor-32" value="" style="edgeStyle=orthogonalEdgeStyle;rounded=0;orthogonalLoop=1;jettySize=auto;html=1;fontSize=16;" edge="1" parent="1" source="wTUO78rwZ2sCBWeo4oor-29" target="wTUO78rwZ2sCBWeo4oor-31">
          <mxGeometry relative="1" as="geometry" />
        </mxCell>
        <mxCell id="wTUO78rwZ2sCBWeo4oor-29" value="Pengecekan Data&lt;br&gt;Oleh LPH" style="whiteSpace=wrap;html=1;" vertex="1" parent="1">
          <mxGeometry x="520" y="135" width="180" height="60" as="geometry" />
        </mxCell>
        <mxCell id="wTUO78rwZ2sCBWeo4oor-34" value="" style="edgeStyle=orthogonalEdgeStyle;rounded=0;orthogonalLoop=1;jettySize=auto;html=1;fontSize=16;" edge="1" parent="1" source="wTUO78rwZ2sCBWeo4oor-31" target="wTUO78rwZ2sCBWeo4oor-33">
          <mxGeometry relative="1" as="geometry" />
        </mxCell>
        <mxCell id="wTUO78rwZ2sCBWeo4oor-60" value="Ya" style="edgeLabel;html=1;align=center;verticalAlign=middle;resizable=0;points=[];fontSize=16;" vertex="1" connectable="0" parent="wTUO78rwZ2sCBWeo4oor-34">
          <mxGeometry x="-0.7487" relative="1" as="geometry">
            <mxPoint x="10" as="offset" />
          </mxGeometry>
        </mxCell>
        <mxCell id="wTUO78rwZ2sCBWeo4oor-38" value="" style="edgeStyle=orthogonalEdgeStyle;rounded=0;orthogonalLoop=1;jettySize=auto;html=1;fontSize=16;" edge="1" parent="1" source="wTUO78rwZ2sCBWeo4oor-31" target="wTUO78rwZ2sCBWeo4oor-36">
          <mxGeometry relative="1" as="geometry" />
        </mxCell>
        <mxCell id="wTUO78rwZ2sCBWeo4oor-61" value="Tidak" style="edgeLabel;html=1;align=center;verticalAlign=middle;resizable=0;points=[];fontSize=16;" vertex="1" connectable="0" parent="wTUO78rwZ2sCBWeo4oor-38">
          <mxGeometry x="-0.2933" relative="1" as="geometry">
            <mxPoint as="offset" />
          </mxGeometry>
        </mxCell>
        <mxCell id="wTUO78rwZ2sCBWeo4oor-31" value="Pengecekan&lt;br&gt;Lapangan" style="rhombus;whiteSpace=wrap;html=1;" vertex="1" parent="1">
          <mxGeometry x="555" y="260" width="110" height="110" as="geometry" />
        </mxCell>
        <mxCell id="wTUO78rwZ2sCBWeo4oor-55" style="edgeStyle=orthogonalEdgeStyle;rounded=0;orthogonalLoop=1;jettySize=auto;html=1;fontSize=16;" edge="1" parent="1" source="wTUO78rwZ2sCBWeo4oor-33">
          <mxGeometry relative="1" as="geometry">
            <mxPoint x="700" y="460" as="targetPoint" />
            <Array as="points">
              <mxPoint x="770" y="460" />
            </Array>
          </mxGeometry>
        </mxCell>
        <mxCell id="wTUO78rwZ2sCBWeo4oor-33" value="Penelusuran&lt;br&gt;ke UMKM" style="whiteSpace=wrap;html=1;" vertex="1" parent="1">
          <mxGeometry x="710" y="285" width="140" height="60" as="geometry" />
        </mxCell>
        <mxCell id="wTUO78rwZ2sCBWeo4oor-40" value="" style="edgeStyle=orthogonalEdgeStyle;rounded=0;orthogonalLoop=1;jettySize=auto;html=1;fontSize=16;" edge="1" parent="1" source="wTUO78rwZ2sCBWeo4oor-36" target="wTUO78rwZ2sCBWeo4oor-39">
          <mxGeometry relative="1" as="geometry" />
        </mxCell>
        <mxCell id="wTUO78rwZ2sCBWeo4oor-36" value="Input Hasil Ke MUI" style="shape=parallelogram;perimeter=parallelogramPerimeter;whiteSpace=wrap;html=1;fixedSize=1;" vertex="1" parent="1">
          <mxGeometry x="510" y="430" width="200" height="60" as="geometry" />
        </mxCell>
        <mxCell id="wTUO78rwZ2sCBWeo4oor-42" value="" style="edgeStyle=orthogonalEdgeStyle;rounded=0;orthogonalLoop=1;jettySize=auto;html=1;fontSize=16;" edge="1" parent="1" source="wTUO78rwZ2sCBWeo4oor-39" target="wTUO78rwZ2sCBWeo4oor-41">
          <mxGeometry relative="1" as="geometry" />
        </mxCell>
        <mxCell id="wTUO78rwZ2sCBWeo4oor-39" value="Pengecekan Data &lt;br&gt;Oleh MUI" style="whiteSpace=wrap;html=1;" vertex="1" parent="1">
          <mxGeometry x="520" y="550" width="180" height="60" as="geometry" />
        </mxCell>
        <mxCell id="wTUO78rwZ2sCBWeo4oor-54" value="" style="edgeStyle=orthogonalEdgeStyle;rounded=0;orthogonalLoop=1;jettySize=auto;html=1;fontSize=16;" edge="1" parent="1" source="wTUO78rwZ2sCBWeo4oor-41" target="wTUO78rwZ2sCBWeo4oor-47">
          <mxGeometry relative="1" as="geometry" />
        </mxCell>
        <mxCell id="wTUO78rwZ2sCBWeo4oor-41" value="Penentuan Hasil Keputasan&lt;br&gt;dan Pemberian Fatwa" style="shape=parallelogram;perimeter=parallelogramPerimeter;whiteSpace=wrap;html=1;fixedSize=1;" vertex="1" parent="1">
          <mxGeometry x="510" y="670" width="200" height="60" as="geometry" />
        </mxCell>
        <mxCell id="wTUO78rwZ2sCBWeo4oor-51" value="" style="edgeStyle=orthogonalEdgeStyle;rounded=0;orthogonalLoop=1;jettySize=auto;html=1;fontSize=16;" edge="1" parent="1" source="wTUO78rwZ2sCBWeo4oor-47" target="wTUO78rwZ2sCBWeo4oor-48">
          <mxGeometry relative="1" as="geometry" />
        </mxCell>
        <mxCell id="wTUO78rwZ2sCBWeo4oor-47" value="Pembuatan dan Upload&lt;br&gt;Sertifikat oleh BPJPH" style="shape=parallelogram;perimeter=parallelogramPerimeter;whiteSpace=wrap;html=1;fixedSize=1;" vertex="1" parent="1">
          <mxGeometry x="510" y="775" width="200" height="60" as="geometry" />
        </mxCell>
        <mxCell id="wTUO78rwZ2sCBWeo4oor-53" value="" style="edgeStyle=orthogonalEdgeStyle;rounded=0;orthogonalLoop=1;jettySize=auto;html=1;fontSize=16;" edge="1" parent="1" source="wTUO78rwZ2sCBWeo4oor-48" target="wTUO78rwZ2sCBWeo4oor-52">
          <mxGeometry relative="1" as="geometry" />
        </mxCell>
        <mxCell id="wTUO78rwZ2sCBWeo4oor-48" value="Generate QR" style="whiteSpace=wrap;html=1;" vertex="1" parent="1">
          <mxGeometry x="520" y="880" width="180" height="60" as="geometry" />
        </mxCell>
        <mxCell id="wTUO78rwZ2sCBWeo4oor-52" value="&lt;font style=&quot;font-size: 16px;&quot;&gt;Selesai&lt;/font&gt;" style="ellipse;whiteSpace=wrap;html=1;" vertex="1" parent="1">
          <mxGeometry x="551" y="1005" width="120" height="60" as="geometry" />
        </mxCell>
      </root>
    </mxGraphModel>
  </diagram>
</mxfile>
